<mxfile host="app.diagrams.net" agent="Mozilla/5.0 (Windows NT 10.0; Win64; x64) AppleWebKit/537.36 (KHTML, like Gecko) Chrome/124.0.0.0 Safari/537.36" version="24.7.17">
  <diagram name="Page-1" id="9f46799a-70d6-7492-0946-bef42562c5a5">
    <mxGraphModel dx="1290" dy="645" grid="1" gridSize="10" guides="1" tooltips="1" connect="1" arrows="1" fold="1" page="1" pageScale="1" pageWidth="1100" pageHeight="850" background="none" math="0" shadow="0">
      <root>
        <mxCell id="0" />
        <mxCell id="1" parent="0" />
        <mxCell id="m9hXggNKfu2ecPiYnrFU-52" value="" style="rounded=0;whiteSpace=wrap;html=1;" vertex="1" parent="1">
          <mxGeometry x="120" y="15" width="810" height="820" as="geometry" />
        </mxCell>
        <mxCell id="m9hXggNKfu2ecPiYnrFU-2" value="Users&lt;div&gt;&lt;br&gt;&lt;/div&gt;" style="shape=umlActor;verticalLabelPosition=bottom;verticalAlign=top;html=1;outlineConnect=0;" vertex="1" parent="1">
          <mxGeometry x="290" y="145" width="30" height="60" as="geometry" />
        </mxCell>
        <mxCell id="m9hXggNKfu2ecPiYnrFU-3" value="Teacher&lt;div&gt;&lt;br&gt;&lt;/div&gt;" style="shape=umlActor;verticalLabelPosition=bottom;verticalAlign=top;html=1;outlineConnect=0;" vertex="1" parent="1">
          <mxGeometry x="240" y="470" width="30" height="60" as="geometry" />
        </mxCell>
        <mxCell id="m9hXggNKfu2ecPiYnrFU-10" style="edgeStyle=orthogonalEdgeStyle;rounded=0;orthogonalLoop=1;jettySize=auto;html=1;" edge="1" parent="1" source="m9hXggNKfu2ecPiYnrFU-5" target="m9hXggNKfu2ecPiYnrFU-2">
          <mxGeometry relative="1" as="geometry">
            <Array as="points">
              <mxPoint x="195" y="155" />
            </Array>
          </mxGeometry>
        </mxCell>
        <mxCell id="m9hXggNKfu2ecPiYnrFU-5" value="Parther company&lt;div&gt;&lt;br&gt;&lt;/div&gt;" style="shape=umlActor;verticalLabelPosition=bottom;verticalAlign=top;html=1;outlineConnect=0;" vertex="1" parent="1">
          <mxGeometry x="180" y="695" width="30" height="60" as="geometry" />
        </mxCell>
        <mxCell id="m9hXggNKfu2ecPiYnrFU-9" style="edgeStyle=orthogonalEdgeStyle;rounded=0;orthogonalLoop=1;jettySize=auto;html=1;" edge="1" parent="1" source="m9hXggNKfu2ecPiYnrFU-6" target="m9hXggNKfu2ecPiYnrFU-2">
          <mxGeometry relative="1" as="geometry">
            <Array as="points">
              <mxPoint x="875" y="85" />
              <mxPoint x="305" y="85" />
            </Array>
          </mxGeometry>
        </mxCell>
        <mxCell id="m9hXggNKfu2ecPiYnrFU-6" value="&lt;div&gt;Student&lt;/div&gt;" style="shape=umlActor;verticalLabelPosition=bottom;verticalAlign=top;html=1;outlineConnect=0;" vertex="1" parent="1">
          <mxGeometry x="860" y="565" width="30" height="60" as="geometry" />
        </mxCell>
        <mxCell id="m9hXggNKfu2ecPiYnrFU-8" style="edgeStyle=orthogonalEdgeStyle;rounded=0;orthogonalLoop=1;jettySize=auto;html=1;entryX=0.5;entryY=0.5;entryDx=0;entryDy=0;entryPerimeter=0;" edge="1" parent="1" source="m9hXggNKfu2ecPiYnrFU-3" target="m9hXggNKfu2ecPiYnrFU-2">
          <mxGeometry relative="1" as="geometry">
            <Array as="points">
              <mxPoint x="255" y="175" />
            </Array>
          </mxGeometry>
        </mxCell>
        <mxCell id="m9hXggNKfu2ecPiYnrFU-11" value="Log in" style="ellipse;whiteSpace=wrap;html=1;" vertex="1" parent="1">
          <mxGeometry x="370" y="95" width="90" height="60" as="geometry" />
        </mxCell>
        <mxCell id="m9hXggNKfu2ecPiYnrFU-12" value="" style="endArrow=none;html=1;rounded=0;" edge="1" parent="1" target="m9hXggNKfu2ecPiYnrFU-11">
          <mxGeometry width="50" height="50" relative="1" as="geometry">
            <mxPoint x="320" y="175" as="sourcePoint" />
            <mxPoint x="460" y="205" as="targetPoint" />
          </mxGeometry>
        </mxCell>
        <mxCell id="m9hXggNKfu2ecPiYnrFU-13" value="Change password" style="ellipse;whiteSpace=wrap;html=1;" vertex="1" parent="1">
          <mxGeometry x="370" y="165" width="90" height="60" as="geometry" />
        </mxCell>
        <mxCell id="m9hXggNKfu2ecPiYnrFU-14" value="" style="endArrow=none;html=1;rounded=0;entryX=0;entryY=0.5;entryDx=0;entryDy=0;" edge="1" parent="1" target="m9hXggNKfu2ecPiYnrFU-13">
          <mxGeometry width="50" height="50" relative="1" as="geometry">
            <mxPoint x="320" y="175" as="sourcePoint" />
            <mxPoint x="433" y="156" as="targetPoint" />
          </mxGeometry>
        </mxCell>
        <mxCell id="m9hXggNKfu2ecPiYnrFU-18" style="edgeStyle=orthogonalEdgeStyle;rounded=0;orthogonalLoop=1;jettySize=auto;html=1;" edge="1" parent="1" source="m9hXggNKfu2ecPiYnrFU-15" target="m9hXggNKfu2ecPiYnrFU-2">
          <mxGeometry relative="1" as="geometry" />
        </mxCell>
        <mxCell id="m9hXggNKfu2ecPiYnrFU-15" value="Administrator" style="shape=umlActor;verticalLabelPosition=bottom;verticalAlign=top;html=1;outlineConnect=0;" vertex="1" parent="1">
          <mxGeometry x="290" y="305" width="30" height="60" as="geometry" />
        </mxCell>
        <mxCell id="m9hXggNKfu2ecPiYnrFU-19" value="Maintain institution" style="ellipse;whiteSpace=wrap;html=1;" vertex="1" parent="1">
          <mxGeometry x="370" y="235" width="90" height="60" as="geometry" />
        </mxCell>
        <mxCell id="m9hXggNKfu2ecPiYnrFU-20" value="" style="endArrow=none;html=1;rounded=0;entryX=0;entryY=0.5;entryDx=0;entryDy=0;" edge="1" parent="1" target="m9hXggNKfu2ecPiYnrFU-19">
          <mxGeometry width="50" height="50" relative="1" as="geometry">
            <mxPoint x="330" y="325" as="sourcePoint" />
            <mxPoint x="410" y="295" as="targetPoint" />
          </mxGeometry>
        </mxCell>
        <mxCell id="m9hXggNKfu2ecPiYnrFU-21" value="Register a teacher in advance" style="ellipse;whiteSpace=wrap;html=1;" vertex="1" parent="1">
          <mxGeometry x="370" y="305" width="90" height="60" as="geometry" />
        </mxCell>
        <mxCell id="m9hXggNKfu2ecPiYnrFU-22" value="" style="endArrow=none;html=1;rounded=0;entryX=0;entryY=0.5;entryDx=0;entryDy=0;" edge="1" parent="1" target="m9hXggNKfu2ecPiYnrFU-21">
          <mxGeometry width="50" height="50" relative="1" as="geometry">
            <mxPoint x="330" y="325" as="sourcePoint" />
            <mxPoint x="430" y="305" as="targetPoint" />
          </mxGeometry>
        </mxCell>
        <mxCell id="m9hXggNKfu2ecPiYnrFU-23" value="Register" style="ellipse;whiteSpace=wrap;html=1;" vertex="1" parent="1">
          <mxGeometry x="439" y="675" width="90" height="60" as="geometry" />
        </mxCell>
        <mxCell id="m9hXggNKfu2ecPiYnrFU-26" value="" style="endArrow=none;html=1;rounded=0;exitX=0;exitY=0.5;exitDx=0;exitDy=0;entryX=1;entryY=0.3333333333333333;entryDx=0;entryDy=0;entryPerimeter=0;" edge="1" parent="1" source="m9hXggNKfu2ecPiYnrFU-23" target="m9hXggNKfu2ecPiYnrFU-3">
          <mxGeometry width="50" height="50" relative="1" as="geometry">
            <mxPoint x="490" y="575" as="sourcePoint" />
            <mxPoint x="280" y="455" as="targetPoint" />
            <Array as="points" />
          </mxGeometry>
        </mxCell>
        <mxCell id="m9hXggNKfu2ecPiYnrFU-27" value="Send recognition" style="ellipse;whiteSpace=wrap;html=1;" vertex="1" parent="1">
          <mxGeometry x="370" y="395" width="90" height="60" as="geometry" />
        </mxCell>
        <mxCell id="m9hXggNKfu2ecPiYnrFU-28" value="" style="endArrow=none;html=1;rounded=0;exitX=0.02;exitY=0.63;exitDx=0;exitDy=0;exitPerimeter=0;" edge="1" parent="1" source="m9hXggNKfu2ecPiYnrFU-27">
          <mxGeometry width="50" height="50" relative="1" as="geometry">
            <mxPoint x="440.0000000000032" y="440" as="sourcePoint" />
            <mxPoint x="270" y="490" as="targetPoint" />
          </mxGeometry>
        </mxCell>
        <mxCell id="m9hXggNKfu2ecPiYnrFU-29" value="Receive coins" style="ellipse;whiteSpace=wrap;html=1;" vertex="1" parent="1">
          <mxGeometry x="370" y="465" width="90" height="60" as="geometry" />
        </mxCell>
        <mxCell id="m9hXggNKfu2ecPiYnrFU-32" value="&lt;span style=&quot;font-size: 12px;&quot;&gt;Receive coins&lt;/span&gt;" style="ellipse;whiteSpace=wrap;html=1;" vertex="1" parent="1">
          <mxGeometry x="670" y="500" width="90" height="60" as="geometry" />
        </mxCell>
        <mxCell id="m9hXggNKfu2ecPiYnrFU-33" value="" style="endArrow=none;html=1;rounded=0;entryX=1;entryY=0.5;entryDx=0;entryDy=0;" edge="1" parent="1" target="m9hXggNKfu2ecPiYnrFU-32">
          <mxGeometry width="50" height="50" relative="1" as="geometry">
            <mxPoint x="840" y="585" as="sourcePoint" />
            <mxPoint x="330" y="565" as="targetPoint" />
          </mxGeometry>
        </mxCell>
        <mxCell id="m9hXggNKfu2ecPiYnrFU-34" value="&lt;span style=&quot;font-size: 12px;&quot;&gt;Receive notification (email)&lt;/span&gt;" style="ellipse;whiteSpace=wrap;html=1;" vertex="1" parent="1">
          <mxGeometry x="670" y="695" width="90" height="60" as="geometry" />
        </mxCell>
        <mxCell id="m9hXggNKfu2ecPiYnrFU-35" value="" style="endArrow=none;html=1;rounded=0;entryX=1;entryY=0.5;entryDx=0;entryDy=0;" edge="1" parent="1" target="m9hXggNKfu2ecPiYnrFU-34">
          <mxGeometry width="50" height="50" relative="1" as="geometry">
            <mxPoint x="840" y="585" as="sourcePoint" />
            <mxPoint x="330" y="505" as="targetPoint" />
          </mxGeometry>
        </mxCell>
        <mxCell id="m9hXggNKfu2ecPiYnrFU-36" value="&lt;span style=&quot;font-size: 12px;&quot;&gt;View currency statement&lt;/span&gt;" style="ellipse;whiteSpace=wrap;html=1;" vertex="1" parent="1">
          <mxGeometry x="440" y="535" width="90" height="60" as="geometry" />
        </mxCell>
        <mxCell id="m9hXggNKfu2ecPiYnrFU-37" value="" style="endArrow=none;html=1;rounded=0;exitX=0.042;exitY=0.289;exitDx=0;exitDy=0;exitPerimeter=0;entryX=1;entryY=0.3333333333333333;entryDx=0;entryDy=0;entryPerimeter=0;" edge="1" parent="1" source="m9hXggNKfu2ecPiYnrFU-36" target="m9hXggNKfu2ecPiYnrFU-3">
          <mxGeometry width="50" height="50" relative="1" as="geometry">
            <mxPoint x="280" y="555" as="sourcePoint" />
            <mxPoint x="280" y="495" as="targetPoint" />
          </mxGeometry>
        </mxCell>
        <mxCell id="m9hXggNKfu2ecPiYnrFU-38" value="" style="endArrow=none;html=1;rounded=0;entryX=1;entryY=0.5;entryDx=0;entryDy=0;" edge="1" parent="1" target="m9hXggNKfu2ecPiYnrFU-36">
          <mxGeometry width="50" height="50" relative="1" as="geometry">
            <mxPoint x="840" y="585" as="sourcePoint" />
            <mxPoint x="330" y="505" as="targetPoint" />
          </mxGeometry>
        </mxCell>
        <mxCell id="m9hXggNKfu2ecPiYnrFU-39" value="" style="endArrow=none;html=1;rounded=0;exitX=1;exitY=0.5;exitDx=0;exitDy=0;" edge="1" parent="1" source="m9hXggNKfu2ecPiYnrFU-23">
          <mxGeometry width="50" height="50" relative="1" as="geometry">
            <mxPoint x="310" y="755" as="sourcePoint" />
            <mxPoint x="840" y="585" as="targetPoint" />
          </mxGeometry>
        </mxCell>
        <mxCell id="m9hXggNKfu2ecPiYnrFU-40" value="" style="endArrow=none;html=1;rounded=0;entryX=0;entryY=0.5;entryDx=0;entryDy=0;" edge="1" parent="1" target="m9hXggNKfu2ecPiYnrFU-23">
          <mxGeometry width="50" height="50" relative="1" as="geometry">
            <mxPoint x="220" y="715" as="sourcePoint" />
            <mxPoint x="360" y="595" as="targetPoint" />
          </mxGeometry>
        </mxCell>
        <mxCell id="m9hXggNKfu2ecPiYnrFU-41" value="" style="endArrow=none;html=1;rounded=0;entryX=0;entryY=0.5;entryDx=0;entryDy=0;" edge="1" parent="1" target="m9hXggNKfu2ecPiYnrFU-29">
          <mxGeometry width="50" height="50" relative="1" as="geometry">
            <mxPoint x="270" y="490" as="sourcePoint" />
            <mxPoint x="430.47489116178554" y="505.6531143743716" as="targetPoint" />
          </mxGeometry>
        </mxCell>
        <mxCell id="m9hXggNKfu2ecPiYnrFU-42" value="&lt;span style=&quot;font-size: 12px;&quot;&gt;View transaction statement&lt;/span&gt;" style="ellipse;whiteSpace=wrap;html=1;" vertex="1" parent="1">
          <mxGeometry x="434" y="599" width="96" height="66" as="geometry" />
        </mxCell>
        <mxCell id="m9hXggNKfu2ecPiYnrFU-43" value="" style="endArrow=none;html=1;rounded=0;entryX=0.017;entryY=0.442;entryDx=0;entryDy=0;entryPerimeter=0;" edge="1" parent="1" target="m9hXggNKfu2ecPiYnrFU-42">
          <mxGeometry width="50" height="50" relative="1" as="geometry">
            <mxPoint x="270" y="490" as="sourcePoint" />
            <mxPoint x="430" y="635" as="targetPoint" />
          </mxGeometry>
        </mxCell>
        <mxCell id="m9hXggNKfu2ecPiYnrFU-44" value="" style="endArrow=none;html=1;rounded=0;exitX=1;exitY=0.5;exitDx=0;exitDy=0;" edge="1" parent="1" source="m9hXggNKfu2ecPiYnrFU-42">
          <mxGeometry width="50" height="50" relative="1" as="geometry">
            <mxPoint x="440" y="685" as="sourcePoint" />
            <mxPoint x="840" y="585" as="targetPoint" />
          </mxGeometry>
        </mxCell>
        <mxCell id="m9hXggNKfu2ecPiYnrFU-45" value="&lt;span style=&quot;font-size: 12px;&quot;&gt;Use coins&lt;/span&gt;" style="ellipse;whiteSpace=wrap;html=1;" vertex="1" parent="1">
          <mxGeometry x="670" y="425" width="90" height="60" as="geometry" />
        </mxCell>
        <mxCell id="m9hXggNKfu2ecPiYnrFU-46" value="" style="endArrow=none;html=1;rounded=0;exitX=1;exitY=0.5;exitDx=0;exitDy=0;" edge="1" parent="1" source="m9hXggNKfu2ecPiYnrFU-45">
          <mxGeometry width="50" height="50" relative="1" as="geometry">
            <mxPoint x="440" y="685" as="sourcePoint" />
            <mxPoint x="840" y="585" as="targetPoint" />
          </mxGeometry>
        </mxCell>
        <mxCell id="m9hXggNKfu2ecPiYnrFU-47" value="Mainrain advantage" style="ellipse;whiteSpace=wrap;html=1;" vertex="1" parent="1">
          <mxGeometry x="250" y="615" width="90" height="60" as="geometry" />
        </mxCell>
        <mxCell id="m9hXggNKfu2ecPiYnrFU-48" value="" style="endArrow=none;html=1;rounded=0;entryX=0;entryY=0.5;entryDx=0;entryDy=0;" edge="1" parent="1" target="m9hXggNKfu2ecPiYnrFU-47">
          <mxGeometry width="50" height="50" relative="1" as="geometry">
            <mxPoint x="220" y="715" as="sourcePoint" />
            <mxPoint x="360" y="745" as="targetPoint" />
          </mxGeometry>
        </mxCell>
        <mxCell id="m9hXggNKfu2ecPiYnrFU-49" value="&lt;span style=&quot;font-size: 12px;&quot;&gt;Receive coupon (email)&lt;/span&gt;" style="ellipse;whiteSpace=wrap;html=1;" vertex="1" parent="1">
          <mxGeometry x="440" y="755" width="90" height="60" as="geometry" />
        </mxCell>
        <mxCell id="m9hXggNKfu2ecPiYnrFU-50" value="" style="endArrow=none;html=1;rounded=0;exitX=0.982;exitY=0.629;exitDx=0;exitDy=0;exitPerimeter=0;" edge="1" parent="1" source="m9hXggNKfu2ecPiYnrFU-49">
          <mxGeometry width="50" height="50" relative="1" as="geometry">
            <mxPoint x="670" y="565" as="sourcePoint" />
            <mxPoint x="840" y="585" as="targetPoint" />
          </mxGeometry>
        </mxCell>
        <mxCell id="m9hXggNKfu2ecPiYnrFU-51" value="" style="endArrow=none;html=1;rounded=0;exitX=0;exitY=0.5;exitDx=0;exitDy=0;" edge="1" parent="1" source="m9hXggNKfu2ecPiYnrFU-49">
          <mxGeometry width="50" height="50" relative="1" as="geometry">
            <mxPoint x="300" y="790" as="sourcePoint" />
            <mxPoint x="220" y="715" as="targetPoint" />
          </mxGeometry>
        </mxCell>
        <mxCell id="m9hXggNKfu2ecPiYnrFU-53" value="&lt;font style=&quot;font-size: 18px;&quot;&gt;Sistema de moeda estudantl&lt;/font&gt;" style="text;html=1;align=center;verticalAlign=middle;whiteSpace=wrap;rounded=0;" vertex="1" parent="1">
          <mxGeometry x="413" y="30" width="275" height="30" as="geometry" />
        </mxCell>
      </root>
    </mxGraphModel>
  </diagram>
</mxfile>
